<svg xmlns="http://www.w3.org/2000/svg" xmlns:xlink="http://www.w3.org/1999/xlink" version="1.1" x="0px" y="0px" viewBox="0 0 64 80" style="enable-background:new 0 0 64 64;" xml:space="preserve"><g><path style="" d="   M49.237,63H14.763C7.162,63,1,56.838,1,49.237V14.763C1,7.162,7.162,1,14.763,1h34.474C56.838,1,63,7.162,63,14.763v34.474   C63,56.838,56.838,63,49.237,63z" fill="none" stroke="#000000" stroke-width="2" stroke-linecap="round" stroke-linejoin="round" stroke-miterlimit="10"/><path style="" d="   M23.017,47L23.017,47c-3.304,0-5.983-2.679-5.983-5.983v-0.034c0-3.304,2.679-5.983,5.983-5.983h0C26.321,35,29,37.679,29,40.983   v0.034C29,44.321,26.321,47,23.017,47z" fill="none" stroke="#000000" stroke-width="2" stroke-linecap="round" stroke-linejoin="round" stroke-miterlimit="10"/><path style="" d="   M41.017,47L41.017,47c-3.304,0-5.983-2.679-5.983-5.983v-0.034c0-3.304,2.679-5.983,5.983-5.983h0C44.321,35,47,37.679,47,40.983   v0.034C47,44.321,44.321,47,41.017,47z" fill="none" stroke="#000000" stroke-width="2" stroke-linecap="round" stroke-linejoin="round" stroke-miterlimit="10"/><path style="" d="   M23.017,29L23.017,29c-3.304,0-5.983-2.679-5.983-5.983v-0.034c0-3.304,2.679-5.983,5.983-5.983h0C26.321,17,29,19.679,29,22.983   v0.034C29,26.321,26.321,29,23.017,29z" fill="none" stroke="#000000" stroke-width="2" stroke-linecap="round" stroke-linejoin="round" stroke-miterlimit="10"/><path style="" d="   M41.017,29L41.017,29c-3.304,0-5.983-2.679-5.983-5.983v-0.034c0-3.304,2.679-5.983,5.983-5.983h0C44.321,17,47,19.679,47,22.983   v0.034C47,26.321,44.321,29,41.017,29z" fill="none" stroke="#000000" stroke-width="2" stroke-linecap="round" stroke-linejoin="round" stroke-miterlimit="10"/></g><text x="0" y="79" fill="#000000" font-size="5px" font-weight="bold" font-family="'Helvetica Neue', Helvetica, Arial-Unicode, Arial, Sans-serif">Created by Jellycons</text><text x="0" y="84" fill="#000000" font-size="5px" font-weight="bold" font-family="'Helvetica Neue', Helvetica, Arial-Unicode, Arial, Sans-serif">from the Noun Project</text></svg>