<?xml version="1.0" encoding="UTF-8"?>
<svg width="210mm" height="297mm" version="1.1" viewBox="0 0 210 297" xmlns="http://www.w3.org/2000/svg" xmlns:cc="http://creativecommons.org/ns#" xmlns:dc="http://purl.org/dc/elements/1.1/" xmlns:rdf="http://www.w3.org/1999/02/22-rdf-syntax-ns#">
 <metadata>
  <rdf:RDF>
   <cc:Work rdf:about="">
    <dc:format>image/svg+xml</dc:format>
    <dc:type rdf:resource="http://purl.org/dc/dcmitype/StillImage"/>
    <dc:title/>
   </cc:Work>
  </rdf:RDF>
 </metadata>
 <g stroke="#000">
  <path d="m46.113 13.607h117.93c15.914 0 28.726 12.812 28.726 28.726v203.35c0 15.914-12.812 28.726-28.726 28.726h-117.93c-15.914 0-28.726-12.812-28.726-28.726v-203.35c0-15.914 12.812-28.726 28.726-28.726z" fill="none" stroke-width="6.865"/>
  <path d="m20.411 37.798 170.09 1.5121" fill="none" stroke-width=".25946px"/>
  <g fill-opacity="0">
   <ellipse cx="160.09" cy="27.662" rx="3.7418" ry="3.8754"/>
   <path transform="scale(.26458)" d="m484.84 145.6c-72.781-0.68871-193.24-1.803-267.69-2.4761-74.448-0.67317-135.56-1.4164-135.81-1.6516-0.93644-0.89559 4.3144-16.385 8.2448-24.321 11.273-22.763 33.483-41.089 59.378-48.995l7.5761-2.313 235.87-0.30832c172.76-0.22582 237.85-5.68e-4 243.27 0.84188 28.817 4.4805 55.673 24.158 68.89 50.477 4.1712 8.3058 7.8326 19.014 8.6766 25.376l0.65377 4.9284-48.365-0.15293c-26.601-0.0841-107.91-0.71642-180.69-1.4051zm124.8-24.702c1.9692-0.54706 5.0096-2.4764 6.7566-4.2875 5.6265-5.8331 6.7332-12.206 3.3957-19.555-2.4312-5.3534-7.1729-8.6865-13.178-9.2635-15.231-1.4635-23.901 16.612-13.493 28.132 4.8031 5.3165 9.8342 6.8314 16.519 4.9743z" stroke-width="3.8179"/>
   <path transform="scale(.26458)" d="m578.28 144.05c-224.5-1.8368-445.06-3.9876-468.45-4.568l-25.497-0.63276 0.63892-2.6641c1.2995-5.4188 6.6923-17.994 10.187-23.756 11.332-18.681 30.62-33.824 52.234-41.007l9.1467-3.0398 477.8-0.19845 8.0812 2.1215c25.734 6.7557 48.139 24.793 59.962 48.272 3.8325 7.6106 8.2231 20.404 8.2231 23.96v2.5998l-20.456-0.1699c-11.251-0.0934-61.594-0.5065-111.87-0.91788zm36.687-23.172c1.9477-1.3346 4.7176-4.2407 6.1553-6.458 5.9436-9.1664 1.2425-23.992-8.8159-27.803-3.6488-1.3825-10.867-1.3825-14.516 0-8.8131 3.3392-13.887 15.523-10.356 24.868 1.281 3.3904 5.3467 7.913 9.5322 10.604 4.235 2.7223 13.134 2.1239 18-1.2102z" stroke-width="3.8179"/>
  </g>
  <path transform="scale(.26458)" d="m667.17 142.42c-14.723-0.12878-107-0.93187-205.06-1.7846-250.28-2.1765-373.14-3.6262-373.95-4.4126-1.0137-0.97939 6.3653-18.052 10.815-25.022 4.731-7.411 17.209-19.939 25.239-25.34 8.1466-5.4794 14.435-8.5688 25.082-12.323l8.9193-3.145h475.39l8.738 2.5322c15.461 4.4805 27.683 11.522 39.33 22.66 12.657 12.103 20.69 25.618 25.405 42.741l1.3212 4.7982-7.2322-0.23503c-3.9777-0.12926-19.278-0.34039-34.001-0.46917zm-52.434-18.799c2.7323-1.4302 5.7202-4.2057 7.735-7.1852 2.8305-4.1856 3.2799-5.7093 3.2608-11.054-0.0323-9.0218-3.421-15.635-10.097-19.705-4.2422-2.5861-15.631-3.0004-19.983-0.7269-7.1206 3.72-11.314 11.36-11.314 20.614 0 7.1668 3.334 12.925 10.125 17.485 5.6722 3.8095 13.657 4.0346 20.273 0.57161z" stroke-width="3.8179"/>
  <path d="m19.511 247.49h171.85" fill="none" stroke-width=".265"/>
  <g>
   <path transform="scale(.26458)" d="m156.04 1021.8c-24.753-5.0325-46.271-19.322-60.461-40.149-7.4605-10.95-13.73-27.538-15.658-41.426l-0.52576-3.7881h635.45l-0.71797 5.3033c-1.2077 8.9207-5.423 21.957-9.8537 30.473-12.137 23.328-32.62 39.975-59.386 48.261l-7.5082 2.3244-237.39 0.1681c-193.29 0.1369-238.61-0.08-243.95-1.1668z" stroke-width="1.0117"/>
   <g stroke-width="1.4308">
    <path transform="scale(.26458)" d="m160.64 1048.5c-51.161-6.8001-90.463-41.403-103.8-91.387l-3.2397-12.143-0.4201-348.21-0.4201-348.21h25.776v346.91c0 341.4 0.04507 347.09 2.8366 358.01 4.3171 16.88 11.781 29.681 25.029 42.929 13.248 13.248 26.05 20.712 42.929 25.029 10.87 2.78 15.841 2.8308 249.08 2.545l237.99-0.2915-240-0.8934c-224.9-0.8372-240.49-1.0537-247.86-3.4392-30.713-9.9513-54.415-33.197-63.418-62.197-1.8346-5.9094-3.7286-12.834-4.2088-15.387l-0.87322-4.6429h634.14l-0.8032 4.6429c-6.3789 36.873-30.489 64.601-67.391 77.505-10.921 3.819-9.0536 4.7256 2.6494 1.286 14.568-4.2815 27.09-11.98 39.223-24.113 13.221-13.221 20.645-26.002 25.005-43.049 2.7658-10.814 2.8172-17.333 2.8172-357.93v-346.91h25.765l-0.42579 348.21c-0.47324 387.01 0.37727 354.73-9.9781 378.69-15.259 35.293-44.677 60.433-82.504 70.504l-12.143 3.233-233.57 0.2333c-128.46 0.1283-237.45-0.2818-242.18-0.9113z"/>
    <path transform="scale(.26458)" d="m159.69 1048.5c-48.936-5.7906-88.835-40.941-102.92-90.669l-3.237-11.429-0.7538-697.86h25.754l0.16432 338.21c0.09037 186.02 0.1444 342.39 0.12004 347.5-0.02436 5.1071 0.26785 7.8393 0.64933 6.0714l0.6936-3.2143h633.89l0.69179 3.2143c0.38048 1.7678 0.67533-1.2857 0.6552-6.7857-0.0202-5.5 0.0347-161.88 0.12185-347.5l0.15845-337.5h25.77l-0.45516 348.93c-0.50958 390.65 0.47922 356.14-10.901 380.43-6.8181 14.549-12.588 23.118-22.91 34.025-14.931 15.777-35.071 27.628-57.933 34.088l-11.429 3.2297-234.29 0.1931c-128.86 0.1061-238.59-0.3158-243.84-0.9378zm92.056-25.732c-49.697-0.5727-93.411-1.4905-97.143-2.0394-9.4008-1.3829-28.667-10.666-39.025-18.805-14.43-11.337-24.258-25.995-31.48-46.95-2.1662-6.2857-3.9831-10.256-4.0376-8.8233-0.14562 3.8331 6.7833 23.75 10.276 29.538 14.017 23.228 34.979 39.204 59.876 45.635 9.7534 2.5192 16.624 2.6954 101.18 2.5945l90.714-0.1081zm402.81-4.6378c17.695-6.423 37.256-22.65 47.366-39.293 5.2007-8.5613 12.885-29.348 11.905-32.203-0.3136-0.91331-1.6925 2.1966-3.0643 6.9108-8.3425 28.671-27.77 49.97-57.359 62.887-12.886 5.6255-12.25 6.5623 1.1523 1.6975z"/>
    <path transform="scale(.26458)" d="m159.5 1048.5c-12.243-1.423-27.603-6.0469-38.776-11.673-31.908-16.067-53.488-42.812-64.29-79.676l-3.5579-12.143-0.029975-348.21-0.029974-348.21h25.714l0.28471 336.79c0.27477 325.03 0.32821 346.09 0.88834 350 0.20354 1.4224 64.767 1.7857 317.37 1.7857h317.12l0.68981-3.2143c0.37942-1.7679 0.57729-5.4643 0.43973-8.2143-0.13757-2.75-0.11429-156.23 0.0517-341.07l0.30175-336.07h25.77l-0.45573 348.93c-0.51058 390.92 0.44199 358.25-11.116 381.25-8.322 16.559-15.183 26.215-25.817 36.331-15.996 15.218-32.621 24.589-55.525 31.3l-12.143 3.5579-233.57-0.1578c-128.46-0.087-237.96-0.6674-243.32-1.2904zm56.468-25.268c-5.7308-0.2719-14.731-0.27-20 0-5.2692 0.274-0.58036 0.4965 10.42 0.4942 11 0 15.311-0.2264 9.5804-0.4983zm-38.509-1.4198c-4.125-0.2886-10.875-0.2886-15 0s-0.75 0.5247 7.5 0.5247 11.625-0.2361 7.5-0.5247zm-43.499-8.0618c-12.695-6.3946-22.562-13.779-30.442-22.783-6.5987-7.5399-16.102-24.465-19.241-34.269-0.96026-2.9991-2.024-5.1748-2.3639-4.8348-1.0229 1.0228 5.8421 18.708 10.16 26.173 6.4761 11.197 25.53 28.992 37.676 35.186 5.7771 2.9465 11.241 5.3552 12.143 5.3528 0.90143 0-2.6676-2.1736-7.9311-4.8249zm533.14-1.984c11.273-6.1754 29.277-23.736 35.488-34.615 6.2945-11.025 5.6357-12.364-0.84464-1.7155-10.729 17.629-22.163 28.243-41.071 38.126-5.5 2.8748-8.3929 4.7914-6.4286 4.259 1.9643-0.5324 7.75-3.2569 12.857-6.0546z"/>
   </g>
  </g>
 </g>
</svg>
